<?xml version="1.0" encoding="UTF-8"?>
<svg version="1.1" xmlns="http://www.w3.org/2000/svg" width="1024" height="1024">
<path d="M0 0 C337.92 0 675.84 0 1024 0 C1024 337.92 1024 675.84 1024 1024 C686.08 1024 348.16 1024 0 1024 C0 686.08 0 348.16 0 0 Z " fill="#FCFCFC" transform="translate(0,0)"/>
<path d="M0 0 C133.72257905 0 133.72257905 0 150.51953125 15.99609375 C152.29697235 17.79704252 154.06130861 19.61101647 155.8125 21.4375 C156.70130859 22.34048828 157.59011719 23.24347656 158.50585938 24.17382812 C162.98488829 28.75231734 167.3067986 33.42588173 171.48706055 38.27758789 C173.55291069 40.62946344 175.75786261 42.81686623 178 45 C181.56400302 48.52106323 184.90304168 52.13186008 188.15625 55.9375 C191.1522794 59.28899052 194.38896618 62.39635028 197.5859375 65.5546875 C200.28751294 68.29123479 202.79078735 71.14979366 205.2890625 74.0703125 C207.74451277 76.83970162 210.39096339 79.40035124 213.02734375 81.99609375 C215.57337829 84.58246151 217.92021557 87.3153528 220.28515625 90.06640625 C221.96004299 91.95494597 223.69947587 93.73155648 225.5 95.5 C227.91332717 97.87042357 230.17271853 100.30736308 232.375 102.875 C234.96634205 105.8846753 237.67254783 108.71088616 240.5 111.5 C243.26560408 114.22829407 245.91287031 116.98516834 248.4375 119.9375 C251.15619248 123.1103592 254.02751675 126.06338382 257 129 C260.56400302 132.52106323 263.90304168 136.13186008 267.15625 139.9375 C270.15105651 143.28762254 273.38633596 146.39376306 276.58203125 149.55078125 C279.30649918 152.3104604 281.83547376 155.19180657 284.35546875 158.13671875 C286.5439537 160.61630858 288.89544013 162.9062118 291.25390625 165.22265625 C293.06477643 167.06593574 294.75321354 168.97822799 296.4375 170.9375 C298.85617779 173.74576347 301.35899683 176.39970593 304 179 C306.5792506 181.53972186 309.02217389 184.12451314 311.375 186.875 C314.11621449 190.06682509 317.00685888 193.04302977 320 196 C323.58558699 199.54232199 326.94891662 203.17555661 330.22265625 207.00390625 C332.94855159 210.0652964 335.89141358 212.89965164 338.80859375 215.77734375 C341.42101068 218.4270144 343.83302621 221.21172803 346.25390625 224.03515625 C348.09615675 226.10820324 350.02401662 228.05435802 352 230 C354.55869259 232.51955389 356.98170611 235.08118782 359.3125 237.8125 C362.22250413 241.20195561 365.32159176 244.36452146 368.5 247.5 C372.26216622 251.21142043 375.82809836 255.0185842 379.2578125 259.0390625 C381.2543789 261.28631885 383.36012946 263.38894927 385.5 265.5 C388.24500542 268.20803565 390.8727091 270.94169249 393.375 273.875 C396.26214819 277.24557765 399.34247378 280.38503521 402.5 283.5 C405.59492241 286.55337286 408.61934317 289.62323732 411.4375 292.9375 C414.45352804 296.47679074 417.69447578 299.73494745 421 303 C424.89895683 306.85121937 428.60824297 310.76421729 432.16015625 314.94140625 C434.95766867 318.07153162 437.96624506 320.98685658 440.95336914 323.93383789 C444.17998653 327.13385771 447.17930461 330.45072272 450.125 333.90625 C452.483453 336.53985585 454.98445956 339.01825923 457.5 341.5 C460.57404135 344.53284817 463.57999199 347.57939354 466.375 350.875 C470.08615917 355.23157816 474.16670121 359.1929993 478.23291016 363.21337891 C481.75563446 366.71166106 485.0958119 370.29164129 488.30078125 374.0859375 C491.12286052 377.26483139 494.20952277 380.17740579 497.27734375 383.1171875 C499 385 499 385 499 387 C499.66 387 500.32 387 501 387 C502.33984375 388.36328125 502.33984375 388.36328125 503.9375 390.3125 C507.40823707 394.40637567 511.13330253 398.16590824 514.953125 401.93310547 C517.55917995 404.51863327 520.05971527 407.14113214 522.4375 409.9375 C525.45352804 413.47679074 528.69447578 416.73494745 532 420 C535.89895683 423.85121937 539.60824297 427.76421729 543.16015625 431.94140625 C545.50495064 434.56498723 547.99630568 437.02990104 550.5 439.5 C553.59491133 442.55338283 556.61934257 445.62323661 559.4375 448.9375 C562.45355532 452.47682275 565.69469452 455.73468827 569 459 C572.98662486 462.94300484 576.85349495 466.92120744 580.4765625 471.20703125 C581.50481893 472.41720997 582.56342983 473.60214894 583.6484375 474.76171875 C589.59785624 481.2190147 591.66737528 487.40645258 591.328125 496.21484375 C590.04842557 507.07705438 583.28260062 513.51972879 576 521 C574.8003975 522.34345727 573.61101356 523.69619493 572.4375 525.0625 C568.83056339 529.2230192 565.11308293 533.2797933 561.40234375 537.34765625 C559.43058156 539.52460996 557.48634663 541.71838674 555.5625 543.9375 C552.17730563 547.83246482 548.68914728 551.63022661 545.1965332 555.4284668 C539.60206521 561.51433428 534.04511018 567.63288259 528.625 573.875 C525.17216181 577.841749 521.61122619 581.70682669 518.04956055 585.57543945 C514.91482948 588.98598806 511.84273698 592.44159116 508.80859375 595.94140625 C505.7222052 599.45442302 502.55371222 602.89299818 499.40234375 606.34765625 C497.43058156 608.52460996 495.48634663 610.71838674 493.5625 612.9375 C490.13163767 616.88745261 486.58869729 620.731871 483.04492188 624.58007812 C480.51274592 627.3345576 478.00972265 630.10733787 475.5625 632.9375 C472.45035705 636.52958789 469.23124165 640.01548282 466 643.5 C462.17205475 647.62872916 458.39141397 651.7848622 454.70703125 656.04296875 C451.90398039 659.25653507 449.03340408 662.40922137 446.17578125 665.57421875 C444.32556437 667.63702788 442.50055191 669.7171237 440.6875 671.8125 C438.08180434 674.811166 435.40081131 677.72869599 432.69140625 680.63305664 C427.57396901 686.11978525 422.7207032 691.7210479 418.01953125 697.57421875 C415.71800104 700.33872603 413.25390084 702.83682074 410.671875 705.3359375 C408.27251672 707.72408382 406.08612601 710.27829375 403.875 712.83984375 C400.3102485 716.94673454 396.64360569 720.96315525 393 725 C391.5206877 726.64570244 390.04152054 728.29153535 388.5625 729.9375 C387.82515625 730.7521875 387.0878125 731.566875 386.328125 732.40625 C384.67665997 734.24613721 383.04296285 736.10204277 381.421875 737.96875 C380.56078125 738.9484375 379.6996875 739.928125 378.8125 740.9375 C378.03519531 741.83339844 377.25789063 742.72929688 376.45703125 743.65234375 C372.83570053 747.11247056 369.52434579 748.80599235 364.5625 749.4375 C359.5139688 748.81750494 355.80517361 747.07579907 352.38105774 743.13835144 C350.93549159 740.90011884 350.28537836 739.11507963 349.65307617 736.53637695 C349.43223862 735.65554443 349.21140106 734.77471191 348.98387146 733.8671875 C348.75587357 732.91714844 348.52787567 731.96710937 348.29296875 730.98828125 C348.04672256 729.99530029 347.80047638 729.00231934 347.54676819 727.97924805 C346.75079114 724.75926244 345.96854302 721.53613777 345.1875 718.3125 C344.64804386 716.10882532 344.10800443 713.90529334 343.56738281 711.7019043 C342.51151206 707.39352202 341.46106384 703.08386421 340.41357422 698.7734375 C339.2694771 694.07917755 338.08767141 689.39674969 336.87890625 684.71875 C330.05109267 658.09779709 330.05109267 658.09779709 335.34765625 649.14453125 C338.58281837 644.94570382 342.25310341 641.13719755 345.90625 637.3046875 C349.43989079 633.57834203 352.64084335 629.61563468 355.85546875 625.61328125 C357.99874956 623.00152377 360.2238033 620.49634698 362.5 618 C365.52282421 614.68010514 368.42512161 611.30235888 371.25 607.8125 C376.45082473 601.39273197 381.87318077 595.17504767 387.30175781 588.94824219 C395.94651317 579.0308834 404.52443766 569.06229779 413 559 C415.01965437 556.60316947 417.04073731 554.2075522 419.0625 551.8125 C419.5280127 551.25933105 419.99352539 550.70616211 420.47314453 550.13623047 C422.25936054 548.02029242 424.04091845 545.95908155 426 544 C425.28769541 543.99945523 424.57539082 543.99891047 423.84150124 543.99834919 C406.47983119 543.9833577 389.1184453 543.94081541 371.75692177 543.86790943 C363.36086774 543.83331086 354.96497702 543.80791067 346.56884766 543.80444336 C339.24759678 543.8013963 331.92663714 543.78080653 324.60549867 543.73947543 C320.73179085 543.71821063 316.85849637 543.70551093 312.98472977 543.71384621 C309.33191705 543.72142817 305.67993895 543.70539807 302.0272789 543.67193985 C300.06114574 543.65987976 298.09490921 543.67224157 296.12878418 543.68556213 C287.12258591 543.57003073 280.57439535 541.67214951 273.50708008 535.9987793 C272.93368896 535.36367432 272.36029785 534.72856934 271.76953125 534.07421875 C271.11146484 533.35943359 270.45339844 532.64464844 269.77539062 531.90820312 C269.12763672 531.17537109 268.47988281 530.44253906 267.8125 529.6875 C267.15314453 528.96626953 266.49378906 528.24503906 265.81445312 527.50195312 C262.03430013 523.34937127 258.3495886 519.11404977 254.65893555 514.88208008 C252.15534679 512.04173192 249.58142085 509.26947138 247 506.5 C243.7875331 503.03798265 240.58893335 499.57347192 237.5 496 C234.44843778 492.47209636 231.294283 489.04674296 228.125 485.625 C226.08299937 483.41697529 224.04145342 481.20853062 222 479 C221.13117188 478.06027344 220.26234375 477.12054687 219.3671875 476.15234375 C212.47691996 468.61398174 207.58373935 463.107896 207.72265625 452.50390625 C208.13734349 448.76003972 209.49677377 446.76672373 212 444 C217.34543219 439.96365324 220.96679687 438.8771829 227.58683777 438.84178162 C228.25910363 438.83684364 228.93136949 438.83190566 229.62400705 438.82681805 C231.88109008 438.81143582 234.13814465 438.80308049 236.39526367 438.79467773 C238.01145173 438.78509978 239.62763728 438.77508975 241.24382019 438.76467896 C245.63604841 438.73761489 250.02828739 438.71661345 254.42055297 438.69667697 C259.00901109 438.67482669 263.59743598 438.64743331 268.18586731 438.62062073 C276.87682761 438.57068088 285.56780633 438.52574684 294.25880271 438.48259836 C304.15229726 438.43323703 314.04575847 438.37831481 323.93922079 438.32291877 C344.29278281 438.20907889 364.64637665 438.10224421 385 438 C384.56393433 437.56655273 384.12786865 437.13310547 383.67858887 436.68652344 C381.69064418 434.70901589 379.704682 432.72952872 377.71875 430.75 C377.03264648 430.06808594 376.34654297 429.38617187 375.63964844 428.68359375 C374.97416992 428.01972656 374.30869141 427.35585938 373.62304688 426.671875 C373.01295776 426.0644043 372.40286865 425.45693359 371.77429199 424.83105469 C369.40462373 422.3855766 367.19275877 419.82265104 365 417.21875 C361.3300692 413.14742052 357.37112093 409.3530512 353.47753906 405.49707031 C349.72967472 401.77159242 346.14280601 397.99404836 342.734375 393.953125 C339.98210459 390.85372139 337.00193158 387.98166602 334.05249023 385.07202148 C330.7589201 381.80571318 327.68487988 378.4207065 324.67578125 374.89453125 C322.23467461 372.134772 319.597094 369.58789024 316.97265625 367.00390625 C314.42662171 364.41753849 312.07978443 361.6846472 309.71484375 358.93359375 C307.52866058 356.46853528 305.19412711 354.18103423 302.84326172 351.87451172 C301.0664748 350.06760179 299.40555411 348.20646091 297.75390625 346.28515625 C294.08596377 342.06707083 290.28336238 337.99310202 286.4375 333.9375 C285.02448973 332.44164222 283.61173415 330.94554383 282.19921875 329.44921875 C281.49587402 328.70462402 280.7925293 327.9600293 280.06787109 327.19287109 C276.95158341 323.88820805 273.8489154 320.5709493 270.75 317.25 C270.17926758 316.63874268 269.60853516 316.02748535 269.02050781 315.39770508 C266.26167911 312.4392763 263.51175606 309.47320685 260.77734375 306.4921875 C255.62744086 300.87886576 250.42304158 295.37690195 244.99609375 290.02734375 C243.15808995 288.16056494 241.44637448 286.24500276 239.75 284.25 C236.51660992 280.47267514 233.03298642 276.99318373 229.5 273.5 C226.07154063 270.10994936 222.67739194 266.74805916 219.5625 263.0625 C215.68866871 258.48963149 211.38071607 254.3559234 207.12451172 250.14404297 C203.46253835 246.50560035 199.97326638 242.79713333 196.63671875 238.85546875 C193.97069681 235.83312884 191.06329552 233.05565761 188.1953125 230.2265625 C185.55993257 227.55366826 183.12233511 224.74631697 180.6796875 221.8984375 C178.4771278 219.40903281 176.11647364 217.1054897 173.74609375 214.77734375 C171.93522357 212.93406426 170.24678646 211.02177201 168.5625 209.0625 C166.14382221 206.25423653 163.64100317 203.60029407 161 201 C157.74970017 197.79970478 154.75275755 194.45775424 151.78125 191 C149.9257479 188.91662922 147.98776899 186.95718793 146 185 C142.11268359 181.16491241 138.56999822 177.13368215 135 173 C132.03 169.7 129.06 166.4 126 163 C125.67 338.89 125.34 514.78 125 696 C83.75 696 42.5 696 0 696 C0 466.32 0 236.64 0 0 Z " fill="#007AF4" transform="translate(210,157)"/>
<path d="M0 0 C42.57 0 85.14 0 129 0 C129 128.7 129 257.4 129 390 C127.35 388.35 125.7 386.7 124 385 C122.97226621 383.98215119 121.94375718 382.9650838 120.9140625 381.94921875 C115.60790515 376.6942205 110.37710722 371.4538356 105.5390625 365.7578125 C103.42316661 363.34118014 101.13368558 361.12174157 98.84204102 358.87329102 C97.06568087 357.06679514 95.40516832 355.20601213 93.75390625 353.28515625 C90.08596497 349.06707221 86.28338749 344.99307653 82.4375 340.9375 C81.02187522 339.43904786 79.60651555 337.94034522 78.19140625 336.44140625 C77.48773926 335.69648926 76.78407227 334.95157227 76.05908203 334.18408203 C72.98643036 330.92489993 69.92928709 327.65138552 66.875 324.375 C66.30579834 323.76454834 65.73659668 323.15409668 65.15014648 322.52514648 C64.00591891 321.29778502 62.86179406 320.0703278 61.71777344 318.84277344 C59.39760585 316.35377046 57.07580933 313.86629017 54.75390625 311.37890625 C53.00502312 309.50538111 51.25641747 307.63159725 49.5078125 305.7578125 C47.149411 303.23085969 44.78992649 300.70492409 42.4296875 298.1796875 C36.45013476 291.78051703 30.48340802 285.37037783 24.55175781 278.92675781 C21.83053213 275.97347558 19.09763938 273.03176607 16.3515625 270.1015625 C15.42150391 269.10866211 15.42150391 269.10866211 14.47265625 268.09570312 C13.28124805 266.82495167 12.08862951 265.55533337 10.89453125 264.28710938 C10.34410156 263.69994141 9.79367187 263.11277344 9.2265625 262.5078125 C8.74783691 261.99879395 8.26911133 261.48977539 7.77587891 260.96533203 C7.18983887 260.31677246 6.60379883 259.66821289 6 259 C5.51801537 258.55210851 5.03603074 258.10421702 4.53944051 257.64275306 C0.36892725 253.4470231 -0.69585907 250.37019698 -0.77448785 244.50080591 C-0.74827228 243.06061229 -0.74827228 243.06061229 -0.7215271 241.59132385 C-0.72665365 240.55628768 -0.7317802 239.52125152 -0.7370621 238.45485061 C-0.74692973 234.9934324 -0.71397001 231.53376667 -0.68115234 228.07250977 C-0.6794596 225.58875062 -0.68041048 223.10498848 -0.68380737 220.62123108 C-0.6851728 215.27743137 -0.6681781 209.9341751 -0.63438034 204.59051704 C-0.58554742 196.86465346 -0.56998454 189.13900224 -0.56245239 181.41300105 C-0.5493316 168.87718274 -0.50943199 156.34159913 -0.45263672 143.8059082 C-0.39753403 131.63111524 -0.35514635 119.45638643 -0.32958984 107.28149414 C-0.32798186 106.52295936 -0.32637388 105.76442458 -0.32471716 104.9829039 C-0.31224009 99.0503645 -0.30049874 93.1178237 -0.28898978 87.18528235 C-0.23242215 58.12330612 -0.111705 29.06191765 0 0 Z " fill="#007AF4" transform="translate(662,155)"/>
<path d="M0 0 C0.99 0 1.98 0 3 0 C3 1.32 3 2.64 3 4 C3.99 4.33 4.98 4.66 6 5 C5.67 5.99 5.34 6.98 5 8 C0 2.25 0 2.25 0 0 Z " fill="#1176F4" transform="translate(785,537)"/>
</svg>
